<svg width="25" height="24" viewBox="0 0 25 24" fill="none" xmlns="http://www.w3.org/2000/svg">
<g id="Eye">
<path id="Icon" d="M12.1366 3C17.5286 3 22.0146 6.88 22.9556 12C22.0156 17.12 17.5286 21 12.1366 21C6.74463 21 2.25863 17.12 1.31763 12C2.25763 6.88 6.74463 3 12.1366 3ZM12.1366 19C14.1761 18.9996 16.155 18.3068 17.7495 17.0352C19.344 15.7635 20.4595 13.9883 20.9136 12C20.4579 10.0133 19.3416 8.24 17.7473 6.97003C16.1529 5.70005 14.1749 5.00853 12.1366 5.00853C10.0983 5.00853 8.12032 5.70005 6.526 6.97003C4.93169 8.24 3.81539 10.0133 3.35963 12C3.81372 13.9883 4.9293 15.7635 6.52377 17.0352C8.11824 18.3068 10.0972 18.9996 12.1366 19ZM12.1366 16.5C10.9432 16.5 9.79856 16.0259 8.95465 15.182C8.11073 14.3381 7.63663 13.1935 7.63663 12C7.63663 10.8065 8.11073 9.66193 8.95465 8.81802C9.79856 7.97411 10.9432 7.5 12.1366 7.5C13.3301 7.5 14.4747 7.97411 15.3186 8.81802C16.1625 9.66193 16.6366 10.8065 16.6366 12C16.6366 13.1935 16.1625 14.3381 15.3186 15.182C14.4747 16.0259 13.3301 16.5 12.1366 16.5ZM12.1366 14.5C12.7997 14.5 13.4356 14.2366 13.9044 13.7678C14.3732 13.2989 14.6366 12.663 14.6366 12C14.6366 11.337 14.3732 10.7011 13.9044 10.2322C13.4356 9.76339 12.7997 9.5 12.1366 9.5C11.4736 9.5 10.8377 9.76339 10.3689 10.2322C9.90002 10.7011 9.63663 11.337 9.63663 12C9.63663 12.663 9.90002 13.2989 10.3689 13.7678C10.8377 14.2366 11.4736 14.5 12.1366 14.5Z" fill="#023AFF"/>
</g>
</svg>
