<svg width="17" height="17" viewBox="0 0 17 17" fill="none" xmlns="http://www.w3.org/2000/svg">
<path d="M3.91759 1.55173H12.7176C13.4509 1.55173 14.0509 2.15173 14.0509 2.88506V4.35173C14.0509 4.88506 13.7176 5.55173 13.3843 5.88506L10.5176 8.41839C10.1176 8.75173 9.85093 9.41839 9.85093 9.95173V12.8184C9.85093 13.2184 9.58426 13.7517 9.25093 13.9517L8.31759 14.5517C7.45093 15.0851 6.25093 14.4851 6.25093 13.4184V9.88506C6.25093 9.41839 5.98426 8.81839 5.71759 8.48506L3.18426 5.81839C2.85093 5.48506 2.58426 4.88506 2.58426 4.48506V2.95173C2.58426 2.15173 3.18426 1.55173 3.91759 1.55173Z" stroke="#989999" stroke-width="1.3" stroke-miterlimit="10" stroke-linecap="round" stroke-linejoin="round"/>
</svg>
