<svg width="30" height="31" viewBox="0 0 30 31" fill="none" xmlns="http://www.w3.org/2000/svg">
<path d="M11.4464 6.65805H12.9844H16.6436H21.0675H24.9171C25.5352 6.65805 26.1563 6.66684 26.7745 6.65805H26.8008C27.4132 6.65805 28.002 6.11899 27.9727 5.48618C27.9434 4.85043 27.4571 4.3143 26.8008 4.3143C26.2882 4.3143 25.7755 4.3143 25.2628 4.3143C24.044 4.3143 22.8223 4.3143 21.6036 4.3143C20.13 4.3143 18.6534 4.3143 17.1798 4.3143C15.8966 4.3143 14.6134 4.3143 13.3301 4.3143C12.712 4.3143 12.0909 4.30551 11.4727 4.3143C11.4639 4.3143 11.4552 4.3143 11.4464 4.3143C10.8341 4.3143 10.2452 4.85336 10.2745 5.48618C10.3038 6.12192 10.7901 6.65805 11.4464 6.65805Z" fill="white"/>
<path d="M2.89167 6.6582H6.07332H6.52449C7.13679 6.6582 7.72566 6.11914 7.69636 5.48633C7.66707 4.85059 7.18074 4.31445 6.52449 4.31445C5.46394 4.31445 4.40339 4.31445 3.34285 4.31445C3.19343 4.31445 3.04109 4.31445 2.89167 4.31445C2.27937 4.31445 1.6905 4.85352 1.7198 5.48633C1.7491 6.12207 2.23542 6.6582 2.89167 6.6582Z" fill="white"/>
<path d="M8.98548 6.77843C8.87708 6.77843 8.76868 6.76964 8.66028 6.75792C8.76282 6.77257 8.86829 6.78722 8.97083 6.79894C8.74817 6.76671 8.53431 6.70812 8.3263 6.62316C8.42005 6.66124 8.5138 6.70226 8.60755 6.74035C8.41712 6.65831 8.24134 6.55285 8.07727 6.4298L8.31458 6.61437C8.14173 6.4796 7.98938 6.32726 7.85462 6.15441C7.91614 6.23351 7.97766 6.31261 8.03919 6.39171C7.91321 6.22765 7.81067 6.04894 7.72864 5.86144C7.76673 5.95519 7.80774 6.04894 7.84583 6.14269C7.75794 5.93468 7.69934 5.72081 7.67005 5.49816C7.6847 5.6007 7.69934 5.70617 7.71106 5.8087C7.6847 5.59191 7.6847 5.37511 7.71106 5.15831C7.69641 5.26085 7.68177 5.36632 7.67005 5.46886C7.70227 5.2462 7.76087 5.03234 7.84583 4.82433C7.80774 4.91808 7.76673 5.01183 7.72864 5.10558C7.81067 4.91515 7.91614 4.73937 8.03919 4.57531C7.97766 4.65441 7.91614 4.73351 7.85462 4.81261C7.98938 4.63976 8.14173 4.48742 8.31458 4.35265C8.23548 4.41417 8.15638 4.4757 8.07727 4.53722C8.24134 4.41124 8.42005 4.3087 8.60755 4.22667C8.5138 4.26476 8.42005 4.30577 8.3263 4.34386C8.53431 4.25597 8.74817 4.19738 8.97083 4.16808C8.86829 4.18273 8.76282 4.19738 8.66028 4.2091C8.87708 4.18273 9.09387 4.18273 9.31067 4.2091C9.20813 4.19445 9.10266 4.1798 9.00013 4.16808C9.22278 4.20031 9.43665 4.2589 9.64466 4.34386C9.55091 4.30577 9.45716 4.26476 9.36341 4.22667C9.55384 4.3087 9.72962 4.41417 9.89368 4.53722C9.81458 4.4757 9.73548 4.41417 9.65638 4.35265C9.82923 4.48742 9.98157 4.63976 10.1163 4.81261C10.0548 4.73351 9.99329 4.65441 9.93177 4.57531C10.0577 4.73937 10.1603 4.91808 10.2423 5.10558C10.2042 5.01183 10.1632 4.91808 10.1251 4.82433C10.213 5.03234 10.2716 5.2462 10.3009 5.46886C10.2863 5.36632 10.2716 5.26085 10.2599 5.15831C10.2863 5.37511 10.2863 5.59191 10.2599 5.8087C10.2745 5.70617 10.2892 5.6007 10.3009 5.49816C10.2687 5.72081 10.2101 5.93468 10.1251 6.14269C10.1632 6.04894 10.2042 5.95519 10.2423 5.86144C10.1603 6.05187 10.0548 6.22765 9.93177 6.39171C9.99329 6.31261 10.0548 6.23351 10.1163 6.15441C9.98157 6.32726 9.82923 6.4796 9.65638 6.61437C9.73548 6.55285 9.81458 6.49132 9.89368 6.4298C9.72962 6.55577 9.55091 6.65831 9.36341 6.74035C9.45716 6.70226 9.55091 6.66124 9.64466 6.62316C9.43665 6.71105 9.22278 6.76964 9.00013 6.79894C9.10266 6.78429 9.20813 6.76964 9.31067 6.75792C9.20227 6.76964 9.09388 6.77843 8.98548 6.77843C8.68372 6.78136 8.37024 6.90734 8.15638 7.1212C7.95423 7.32335 7.79895 7.65734 7.8136 7.95031C7.8429 8.58019 8.32923 9.12804 8.98548 9.12218C9.69153 9.11632 10.4386 8.91417 11.0158 8.49816C11.3937 8.2257 11.6779 7.94445 11.9562 7.57238C12.1642 7.29113 12.3077 6.98058 12.4279 6.65245C12.6798 5.97863 12.6827 5.17882 12.4894 4.49327C12.3019 3.83117 11.9093 3.17785 11.3732 2.73839C11.0128 2.44542 10.6759 2.24327 10.2452 2.07042C9.91126 1.93566 9.55384 1.87706 9.19056 1.84777C8.4845 1.78917 7.71985 1.98839 7.11341 2.35753C6.52454 2.71495 6.00306 3.25402 5.71595 3.8839C5.62513 4.08312 5.53723 4.28527 5.47864 4.49327C5.41712 4.71007 5.39075 4.93273 5.36438 5.15538C5.32044 5.53038 5.35852 5.90538 5.43177 6.27452C5.57825 7.00695 6.01477 7.74816 6.59485 8.22277C6.97571 8.53331 7.33313 8.74425 7.79309 8.92003C8.16809 9.06359 8.58704 9.11925 8.98548 9.12218C9.59778 9.12804 10.1866 8.58019 10.1574 7.95031C10.1281 7.31163 9.64173 6.78429 8.98548 6.77843Z" fill="white"/>
<path d="M22.8721 16.6777H26.3145H26.7979C27.4102 16.6777 27.9991 16.1387 27.9698 15.5059C27.9405 14.8701 27.4542 14.334 26.7979 14.334C25.6495 14.334 24.501 14.334 23.3555 14.334C23.1944 14.334 23.0333 14.334 22.8721 14.334C22.2598 14.334 21.671 14.873 21.7003 15.5059C21.7296 16.1416 22.2159 16.6777 22.8721 16.6777Z" fill="white"/>
<path d="M2.89167 16.6776H4.39753H7.98347H12.3341H16.0958C16.7051 16.6776 17.3145 16.6864 17.9239 16.6776H17.9503C18.5626 16.6776 19.1514 16.1385 19.1221 15.5057C19.0928 14.87 18.6065 14.3338 17.9503 14.3338C17.4493 14.3338 16.9454 14.3338 16.4444 14.3338C15.2491 14.3338 14.0538 14.3338 12.8585 14.3338C11.4083 14.3338 9.95808 14.3338 8.50788 14.3338C7.25398 14.3338 6.00007 14.3338 4.74617 14.3338C4.13679 14.3338 3.52742 14.325 2.91804 14.3338C2.90925 14.3338 2.90046 14.3338 2.89167 14.3338C2.27937 14.3338 1.6905 14.8729 1.7198 15.5057C1.7491 16.1414 2.23542 16.6776 2.89167 16.6776Z" fill="white"/>
<path d="M20.4113 16.798C20.3029 16.798 20.1945 16.7892 20.0861 16.7775C20.1886 16.7921 20.2941 16.8068 20.3966 16.8185C20.174 16.7862 19.9601 16.7276 19.7521 16.6427C19.8458 16.6808 19.9396 16.7218 20.0333 16.7599C19.8429 16.6778 19.6671 16.5724 19.5031 16.4493C19.5822 16.5109 19.6613 16.5724 19.7404 16.6339C19.5675 16.4991 19.4152 16.3468 19.2804 16.1739C19.3419 16.253 19.4034 16.3321 19.465 16.4112C19.339 16.2472 19.2365 16.0685 19.1544 15.881C19.1925 15.9747 19.2335 16.0685 19.2716 16.1622C19.1837 15.9542 19.1251 15.7403 19.0958 15.5177C19.1105 15.6202 19.1251 15.7257 19.1368 15.8282C19.1105 15.6114 19.1105 15.3946 19.1368 15.1778C19.1222 15.2804 19.1075 15.3859 19.0958 15.4884C19.1281 15.2657 19.1866 15.0519 19.2716 14.8439C19.2335 14.9376 19.1925 15.0314 19.1544 15.1251C19.2365 14.9347 19.3419 14.7589 19.465 14.5948C19.4034 14.6739 19.3419 14.753 19.2804 14.8321C19.4152 14.6593 19.5675 14.5069 19.7404 14.3722C19.6613 14.4337 19.5822 14.4952 19.5031 14.5568C19.6671 14.4308 19.8458 14.3282 20.0333 14.2462C19.9396 14.2843 19.8458 14.3253 19.7521 14.3634C19.9601 14.2755 20.174 14.2169 20.3966 14.1876C20.2941 14.2023 20.1886 14.2169 20.0861 14.2286C20.3029 14.2023 20.5197 14.2023 20.7365 14.2286C20.6339 14.214 20.5284 14.1993 20.4259 14.1876C20.6486 14.2198 20.8624 14.2784 21.0704 14.3634C20.9767 14.3253 20.8829 14.2843 20.7892 14.2462C20.9796 14.3282 21.1554 14.4337 21.3195 14.5568C21.2404 14.4952 21.1613 14.4337 21.0822 14.3722C21.255 14.5069 21.4074 14.6593 21.5421 14.8321C21.4806 14.753 21.4191 14.6739 21.3575 14.5948C21.4835 14.7589 21.5861 14.9376 21.6681 15.1251C21.63 15.0314 21.589 14.9376 21.5509 14.8439C21.6388 15.0519 21.6974 15.2657 21.7267 15.4884C21.712 15.3859 21.6974 15.2804 21.6857 15.1778C21.712 15.3946 21.712 15.6114 21.6857 15.8282C21.7003 15.7257 21.715 15.6202 21.7267 15.5177C21.6945 15.7403 21.6359 15.9542 21.5509 16.1622C21.589 16.0685 21.63 15.9747 21.6681 15.881C21.5861 16.0714 21.4806 16.2472 21.3575 16.4112C21.4191 16.3321 21.4806 16.253 21.5421 16.1739C21.4074 16.3468 21.255 16.4991 21.0822 16.6339C21.1613 16.5724 21.2404 16.5109 21.3195 16.4493C21.1554 16.5753 20.9767 16.6778 20.7892 16.7599C20.8829 16.7218 20.9767 16.6808 21.0704 16.6427C20.8624 16.7306 20.6486 16.7892 20.4259 16.8185C20.5284 16.8038 20.6339 16.7892 20.7365 16.7775C20.6281 16.7892 20.5197 16.798 20.4113 16.798C20.1095 16.8009 19.796 16.9269 19.5822 17.1407C19.38 17.3429 19.2247 17.6769 19.2394 17.9698C19.2687 18.5997 19.755 19.1476 20.4113 19.1417C21.1173 19.1359 21.8644 18.9337 22.4415 18.5177C22.8195 18.2452 23.1036 17.964 23.382 17.5919C23.59 17.3107 23.7335 17.0001 23.8536 16.672C24.1056 15.9982 24.1085 15.1984 23.9152 14.5128C23.7277 13.8507 23.3351 13.1974 22.799 12.7579C22.4386 12.465 22.1017 12.2628 21.671 12.09C21.3312 11.9552 20.9767 11.8966 20.6105 11.8673C19.9044 11.8087 19.1398 12.0079 18.5333 12.3771C17.9445 12.7345 17.423 13.2735 17.1359 13.9034C17.045 14.1026 16.9572 14.3048 16.8986 14.5128C16.837 14.7296 16.8107 14.9523 16.7843 15.1749C16.7404 15.5499 16.7784 15.9249 16.8517 16.2941C16.9982 17.0265 17.4347 17.7677 18.0148 18.2423C18.3956 18.5528 18.7531 18.7638 19.213 18.9396C19.588 19.0831 20.007 19.1388 20.4054 19.1417C21.0177 19.1476 21.6066 18.5997 21.5773 17.9698C21.5538 17.3312 21.0675 16.8038 20.4113 16.798Z" fill="white"/>
<path d="M16.1339 26.6971H17.1915H19.7344H22.8135H25.4766C25.9102 26.6971 26.3438 26.7059 26.7774 26.6971H26.7979C27.4102 26.6971 27.9991 26.1581 27.9698 25.5252C27.9405 24.8895 27.4542 24.3534 26.7979 24.3534C26.4464 24.3534 26.0919 24.3534 25.7403 24.3534C24.8936 24.3534 24.044 24.3534 23.1973 24.3534C22.1719 24.3534 21.1436 24.3534 20.1182 24.3534C19.2305 24.3534 18.3428 24.3534 17.4552 24.3534C17.0216 24.3534 16.588 24.3446 16.1544 24.3534C16.1485 24.3534 16.1427 24.3534 16.1339 24.3534C15.5216 24.3534 14.9327 24.8924 14.962 25.5252C14.9913 26.161 15.4776 26.6971 16.1339 26.6971Z" fill="white"/>
<path d="M2.89167 26.6973H5.69832H10.1866H11.212C11.8243 26.6973 12.4132 26.1582 12.3839 25.5254C12.3546 24.8896 11.8682 24.3535 11.212 24.3535C10.2774 24.3535 9.34285 24.3535 8.40535 24.3535C6.90828 24.3535 5.41414 24.3535 3.91707 24.3535C3.57429 24.3535 3.23152 24.3535 2.89167 24.3535C2.27937 24.3535 1.6905 24.8926 1.7198 25.5254C1.7491 26.1611 2.23542 26.6973 2.89167 26.6973Z" fill="white"/>
<path d="M13.6727 26.8175C13.5643 26.8175 13.4559 26.8087 13.3475 26.797C13.4501 26.8116 13.5555 26.8263 13.6581 26.838C13.4354 26.8058 13.2216 26.7472 13.0136 26.6622C13.1073 26.7003 13.2011 26.7413 13.2948 26.7794C13.1044 26.6974 12.9286 26.5919 12.7645 26.4689L13.0018 26.6534C12.829 26.5187 12.6766 26.3663 12.5419 26.1935L12.7264 26.4308C12.6005 26.2667 12.4979 26.088 12.4159 25.9005C12.454 25.9943 12.495 26.088 12.5331 26.1818C12.4452 25.9737 12.3866 25.7599 12.3573 25.5372C12.372 25.6398 12.3866 25.7452 12.3983 25.8478C12.372 25.631 12.372 25.4142 12.3983 25.1974C12.3837 25.2999 12.369 25.4054 12.3573 25.5079C12.3895 25.2853 12.4481 25.0714 12.5331 24.8634C12.495 24.9571 12.454 25.0509 12.4159 25.1446C12.4979 24.9542 12.6034 24.7784 12.7264 24.6144C12.6649 24.6935 12.6034 24.7726 12.5419 24.8517C12.6766 24.6788 12.829 24.5265 13.0018 24.3917C12.9227 24.4532 12.8436 24.5148 12.7645 24.5763C12.9286 24.4503 13.1073 24.3478 13.2948 24.2657C13.2011 24.3038 13.1073 24.3448 13.0136 24.3829C13.2216 24.295 13.4354 24.2364 13.6581 24.2071C13.5555 24.2218 13.4501 24.2364 13.3475 24.2482C13.5643 24.2218 13.7811 24.2218 13.9979 24.2482C13.8954 24.2335 13.7899 24.2189 13.6874 24.2071C13.91 24.2394 14.1239 24.298 14.3319 24.3829C14.2382 24.3448 14.1444 24.3038 14.0507 24.2657C14.2411 24.3478 14.4169 24.4532 14.5809 24.5763C14.5018 24.5148 14.4227 24.4532 14.3436 24.3917C14.5165 24.5265 14.6688 24.6788 14.8036 24.8517C14.7421 24.7726 14.6805 24.6935 14.619 24.6144C14.745 24.7784 14.8475 24.9571 14.9296 25.1446C14.8915 25.0509 14.8505 24.9571 14.8124 24.8634C14.9003 25.0714 14.9589 25.2853 14.9882 25.5079C14.9735 25.4054 14.9589 25.2999 14.9471 25.1974C14.9735 25.4142 14.9735 25.631 14.9471 25.8478C14.9618 25.7452 14.9764 25.6398 14.9882 25.5372C14.9559 25.7599 14.8973 25.9737 14.8124 26.1818C14.8505 26.088 14.8915 25.9943 14.9296 25.9005C14.8475 26.0909 14.7421 26.2667 14.619 26.4308L14.8036 26.1935C14.6688 26.3663 14.5165 26.5187 14.3436 26.6534L14.5809 26.4689C14.4169 26.5948 14.2382 26.6974 14.0507 26.7794C14.1444 26.7413 14.2382 26.7003 14.3319 26.6622C14.1239 26.7501 13.91 26.8087 13.6874 26.838C13.7899 26.8234 13.8954 26.8087 13.9979 26.797C13.8895 26.8087 13.7811 26.8175 13.6727 26.8175C13.371 26.8204 13.0575 26.9464 12.8436 27.1603C12.6415 27.3624 12.4862 27.6964 12.5009 27.9894C12.5302 28.6193 13.0165 29.1671 13.6727 29.1612C14.3788 29.1554 15.1259 28.9532 15.703 28.5372C16.0809 28.2648 16.3651 27.9835 16.6434 27.6114C16.8514 27.3302 16.995 27.0196 17.1151 26.6915C17.3671 26.0177 17.37 25.2179 17.1766 24.5323C16.9891 23.8702 16.5966 23.2169 16.0604 22.7775C15.7001 22.4845 15.3632 22.2823 14.9325 22.1095C14.5927 21.9747 14.2382 21.9161 13.872 21.8868C13.1659 21.8282 12.4012 22.0275 11.7948 22.3966C11.2059 22.754 10.6845 23.2931 10.3973 23.923C10.3065 24.1222 10.2186 24.3243 10.16 24.5323C10.0985 24.7491 10.0721 24.9718 10.0458 25.1944C10.0018 25.5694 10.0399 25.9444 10.1132 26.3136C10.2596 27.046 10.6962 27.7872 11.2762 28.2618C11.6571 28.5724 12.0145 28.7833 12.4745 28.9591C12.8495 29.1027 13.2684 29.1583 13.6669 29.1612C14.2792 29.1671 14.868 28.6193 14.8387 27.9894C14.8153 27.3507 14.329 26.8234 13.6727 26.8175Z" fill="white"/>
</svg>
