<svg width="25" height="24" viewBox="0 0 25 24" fill="none" xmlns="http://www.w3.org/2000/svg">
<g id="Users">
<path id="Icon" d="M7.31763 10C7.98067 10 8.61655 9.73661 9.08539 9.26777C9.55423 8.79893 9.81763 8.16304 9.81763 7.5C9.81763 6.83696 9.55423 6.20107 9.08539 5.73223C8.61655 5.26339 7.98067 5 7.31763 5C6.65459 5 6.0187 5.26339 5.54986 5.73223C5.08102 6.20107 4.81763 6.83696 4.81763 7.5C4.81763 8.16304 5.08102 8.79893 5.54986 9.26777C6.0187 9.73661 6.65459 10 7.31763 10ZM7.31763 12C6.72668 12 6.14152 11.8836 5.59555 11.6575C5.04959 11.4313 4.55351 11.0998 4.13565 10.682C3.71778 10.2641 3.38632 9.76804 3.16017 9.22208C2.93402 8.67611 2.81763 8.09095 2.81763 7.5C2.81763 6.90905 2.93402 6.32389 3.16017 5.77792C3.38632 5.23196 3.71778 4.73588 4.13565 4.31802C4.55351 3.90016 5.04959 3.56869 5.59555 3.34254C6.14152 3.1164 6.72668 3 7.31763 3C8.5111 3 9.65569 3.47411 10.4996 4.31802C11.3435 5.16193 11.8176 6.30653 11.8176 7.5C11.8176 8.69347 11.3435 9.83807 10.4996 10.682C9.65569 11.5259 8.5111 12 7.31763 12ZM17.8176 14C18.3481 14 18.8568 13.7893 19.2318 13.4142C19.6069 13.0391 19.8176 12.5304 19.8176 12C19.8176 11.4696 19.6069 10.9609 19.2318 10.5858C18.8568 10.2107 18.3481 10 17.8176 10C17.2872 10 16.7785 10.2107 16.4034 10.5858C16.0283 10.9609 15.8176 11.4696 15.8176 12C15.8176 12.5304 16.0283 13.0391 16.4034 13.4142C16.7785 13.7893 17.2872 14 17.8176 14ZM17.8176 16C16.7568 16 15.7393 15.5786 14.9892 14.8284C14.2391 14.0783 13.8176 13.0609 13.8176 12C13.8176 10.9391 14.2391 9.92172 14.9892 9.17157C15.7393 8.42143 16.7568 8 17.8176 8C18.8785 8 19.8959 8.42143 20.6461 9.17157C21.3962 9.92172 21.8176 10.9391 21.8176 12C21.8176 13.0609 21.3962 14.0783 20.6461 14.8284C19.8959 15.5786 18.8785 16 17.8176 16ZM20.3176 22V21.5C20.3176 20.837 20.0542 20.2011 19.5854 19.7322C19.1166 19.2634 18.4807 19 17.8176 19C17.1546 19 16.5187 19.2634 16.0499 19.7322C15.581 20.2011 15.3176 20.837 15.3176 21.5V22H13.3176V21.5C13.3176 20.9091 13.434 20.3239 13.6602 19.7779C13.8863 19.232 14.2178 18.7359 14.6356 18.318C15.0535 17.9002 15.5496 17.5687 16.0956 17.3425C16.6415 17.1164 17.2267 17 17.8176 17C18.4086 17 18.9937 17.1164 19.5397 17.3425C20.0857 17.5687 20.5817 17.9002 20.9996 18.318C21.4175 18.7359 21.7489 19.232 21.9751 19.7779C22.2012 20.3239 22.3176 20.9091 22.3176 21.5V22H20.3176ZM10.3176 22V18C10.3176 17.2044 10.0016 16.4413 9.43895 15.8787C8.87634 15.3161 8.11328 15 7.31763 15C6.52198 15 5.75892 15.3161 5.19631 15.8787C4.6337 16.4413 4.31763 17.2044 4.31763 18V22H2.31763V18C2.31763 16.6739 2.84441 15.4021 3.78209 14.4645C4.71977 13.5268 5.99154 13 7.31763 13C8.64371 13 9.91548 13.5268 10.8532 14.4645C11.7908 15.4021 12.3176 16.6739 12.3176 18V22H10.3176Z" fill="#023AFF"/>
</g>
</svg>
