<svg width="25" height="24" viewBox="0 0 25 24" fill="none" xmlns="http://www.w3.org/2000/svg">
<g id="Server">
<path id="icon" d="M5.31763 11H19.3176V5H5.31763V11ZM21.3176 4V20C21.3176 20.2652 21.2123 20.5196 21.0247 20.7071C20.8372 20.8946 20.5828 21 20.3176 21H4.31763C4.05241 21 3.79806 20.8946 3.61052 20.7071C3.42298 20.5196 3.31763 20.2652 3.31763 20V4C3.31763 3.73478 3.42298 3.48043 3.61052 3.29289C3.79806 3.10536 4.05241 3 4.31763 3H20.3176C20.5828 3 20.8372 3.10536 21.0247 3.29289C21.2123 3.48043 21.3176 3.73478 21.3176 4ZM19.3176 13H5.31763V19H19.3176V13ZM7.31763 15H10.3176V17H7.31763V15ZM7.31763 7H10.3176V9H7.31763V7Z" fill="#023AFF"/>
</g>
</svg>
