<svg width="25" height="24" viewBox="0 0 25 24" fill="none" xmlns="http://www.w3.org/2000/svg">
<path d="M10.3176 14V16C8.7263 16 7.20017 16.6321 6.07496 17.7574C4.94974 18.8826 4.3176 20.4087 4.3176 22H2.3176C2.3176 19.8783 3.16045 17.8434 4.66074 16.3431C6.16103 14.8429 8.19586 14 10.3176 14ZM10.3176 13C7.0026 13 4.3176 10.315 4.3176 7C4.3176 3.685 7.0026 1 10.3176 1C13.6326 1 16.3176 3.685 16.3176 7C16.3176 10.315 13.6326 13 10.3176 13ZM10.3176 11C12.5276 11 14.3176 9.21 14.3176 7C14.3176 4.79 12.5276 3 10.3176 3C8.1076 3 6.3176 4.79 6.3176 7C6.3176 9.21 8.1076 11 10.3176 11ZM16.3176 21.5L13.3786 23.045L13.9396 19.773L11.5626 17.455L14.8486 16.977L16.3176 14L17.7876 16.977L21.0726 17.455L18.6956 19.773L19.2556 23.045L16.3176 21.5Z" fill="#023AFF"/>
</svg>
